<svg xmlns="http://www.w3.org/2000/svg" x="0px" y="0px" viewBox="0 0 864 864" enable-background="new 0 0 864 864"><style>.fs0,.ls0{fill:#01ea67}</style>
<g>
<path class="ls0" d="M314.5,148.3L148.3,314.5v235l166.2,166.2c45.8-26.5,23.2-13.4,104.1-60.1c0-9.4,0-437.8,0-447.2	C337.4,161.5,359.1,174,314.5,148.3z M350.6,616.3l-24.9,14.4L216.3,521.3V342.7l109.3-109.3l24.9,14.4V616.3z"/>
<path class="ls0" d="M445.4,208.4c0,3.7,0,441.8,0,447.2c81.2,46.9,59.5,34.4,104.1,60.1l166.2-166.2v-235L549.5,148.3	C503.7,174.8,526.3,161.7,445.4,208.4z M647.7,521.3L538.3,630.7l-24.9-14.4V247.7l24.9-14.4l109.3,109.3V521.3z"/>
</g>
<g class="fs0">
<path d="M565.5,109.8h-267L109.8,298.5v266.9l188.7,188.7h266.9l188.7-188.7V298.5L565.5,109.8z M560.7,742.7H303.3l-182-182V303.3	l182-182h257.4l182,182v257.4l0,0L560.7,742.7z"/>
</g>
</svg>